#!OML:ASF I:\golf\golf\golf 2\Subject 1\2002-09-07\Subject1.ASF
:FULLY-SPECIFIED
:DEGREES
402
root -4.75621 18.0195 -2.17166 -168.392 -5.00585 -172.904
lowerback -10.6716 15.8903 14.4415
upperback -15.3532 17.5526 1.02136
thorax -7.20761 6.20443 -4.78861
lowerneck -6.45671 -22.5619 -5.35529
upperneck 7.61404 -32.0909 9.33076
head 5.63142 -15.6691 0.835241
rclavicle 1.44715e-013 8.0309e-014
rhumerus 109.722 24.3517 -50.4391
rradius 79.6328
rwrist 11.6501
rhand -41.3934 32.2927
rfingers 7.12502
rthumb -14.3107 2.8059
lclavicle 1.44715e-013 8.0309e-014
lhumerus 70.7409 21.8382 66.6904
lradius 90.9993
lwrist 13.2383
lhand -35.4132 19.2658
lfingers 7.12502
lthumb -188.544 -490.927
rfemur 20.9868 -6.08304 25.4983
rtibia 6.35149
rfoot 36.3479 -21.6383
rtoes 14.7507
lfemur -24.8648 -20.3103 -11.6565
ltibia 29.0812
lfoot 27.0002 -45.3567
ltoes 52.2246
403
root -4.75747 18.0127 -2.18933 -168.374 -5.20786 -173.088
lowerback -10.7657 15.9629 14.2549
upperback -15.435 17.6511 0.819347
thorax -7.21625 6.2642 -4.88226
lowerneck -6.33853 -22.5873 -5.2621
upperneck 7.52948 -32.0658 9.13299
head 5.53712 -15.6725 0.809534
rclavicle 2.14687e-014 2.66371e-014
rhumerus 109.677 24.2676 -50.4638
rradius 80.0757
rwrist 11.8841
rhand -42.3517 32.71
rfingers 7.12502
rthumb -15.234 3.29088
lclavicle 2.14687e-014 2.66371e-014
lhumerus 70.8552 22.0664 66.4371
lradius 91.2831
lwrist 12.187
lhand -35.792 19.4467
lfingers 7.12502
lthumb -188.909 -490.761
rfemur 21.3138 -6.28948 25.2891
rtibia 5.81224
rfoot 36.7746 -21.2628
rtoes 14.3674
lfemur -24.8984 -20.4679 -11.8547
ltibia 29.1791
lfoot 27.1169 -45.3837
ltoes 52.3137
404
root -4.76006 18.0056 -2.20659 -168.38 -5.44158 -173.195
lowerback -10.8747 16.0368 14.1813
upperback -15.4871 17.7386 0.650365
thorax -7.16747 6.3148 -4.98589
lowerneck -6.35579 -22.6304 -4.84872
upperneck 7.45945 -32.0293 8.65172
head 5.37249 -15.6733 0.68558
rclavicle 9.42239e-014 9.18385e-014
rhumerus 109.653 24.8839 -50.4429
rradius 80.3608
rwrist 12.7337
rhand -43.0876 33.3952
rfingers 7.12502
rthumb -15.9427 4.03136
lclavicle 9.42239e-014 9.18385e-014
lhumerus 70.9512 22.452 66.1097
lradius 91.5446
lwrist 11.381
lhand -36.1722 19.6849
lfingers 7.12502
lthumb -189.276 -490.539
rfemur 21.6827 -6.51557 25.1672
rtibia 5.21811
rfoot 37.4389 -20.6618
rtoes 13.3145
lfemur -24.9306 -20.6388 -11.9699
ltibia 29.2955
lfoot 27.1661 -45.4733
ltoes 52.4943
405
root -4.76244 18.0004 -2.22147 -168.396 -5.69602 -173.103
lowerback -11.0393 16.0903 14.2779
upperback -15.4931 17.7669 0.577501
thorax -7.03563 6.32865 -5.05755
lowerneck -6.41052 -22.6028 -4.62126
upperneck 7.45312 -31.9291 8.36117
head 5.29042 -15.6323 0.613298
rclavicle -1.71352e-013 -7.7526e-014
rhumerus 109.238 24.685 -50.8163
rradius 81.2002
rwrist 12.3323
rhand -43.3248 33.8873
rfingers 7.12502
rthumb -16.1711 4.54183
lclavicle -1.71352e-013 -7.7526e-014
lhumerus 70.9894 22.8898 65.716
lradius 91.7252
lwrist 10.8579
lhand -35.7274 19.4911
lfingers 7.12502
lthumb -188.847 -490.714
rfemur 22.0229 -6.73067 25.2705
rtibia 4.63124
rfoot 37.9144 -20.5632
rtoes 13.2589
lfemur -24.989 -20.7882 -11.8455
ltibia 29.4193
lfoot 27.2641 -45.5258
ltoes 52.5752
406
root -4.76136 17.9959 -2.23879 -168.405 -5.92534 -172.963
lowerback -11.2533 16.1158 14.3573
upperback -15.4658 17.7473 0.550775
thorax -6.86681 6.32642 -5.06888
lowerneck -6.58314 -22.5588 -4.58163
upperneck 7.59678 -31.8347 8.19681
head 5.32332 -15.5801 0.553609
rclavicle 1.53064e-013 1.28415e-013
rhumerus 109.398 25.1036 -50.8563
rradius 81.5129
rwrist 12.6293
rhand -43.5801 34.5386
rfingers 7.12502
rthumb -16.417 5.21334
lclavicle 1.53064e-013 1.28415e-013
lhumerus 71.0209 23.3544 65.3403
lradius 91.7928
lwrist 10.1516
lhand -35.0227 19.0481
lfingers 7.12502
lthumb -188.167 -491.13
rfemur 22.3442 -6.91944 25.4415
rtibia 4.0712
rfoot 38.1209 -20.899
rtoes 14.0642
lfemur -25.0495 -20.9236 -11.6518
ltibia 29.5479
lfoot 27.4297 -45.5305
ltoes 52.7468
407
root -4.75567 17.9907 -2.2567 -168.376 -6.12038 -172.963
lowerback -11.4691 16.1311 14.2672
upperback -15.4072 17.7414 0.470822
thorax -6.68227 6.35564 -5.05545
lowerneck -7.03366 -22.5715 -4.48735
upperneck 7.8416 -31.8106 7.97539
head 5.41703 -15.5476 0.428409
rclavicle -1.63003e-014 -1.19271e-015
rhumerus 110.13 26.3223 -50.3705
rradius 81.1792
rwrist 14.0102
rhand -44.1334 35.124
rfingers 7.12502
rthumb -16.9496 5.84361
lclavicle -1.63003e-014 -1.19271e-015
lhumerus 71.2115 23.7328 65.0358
lradius 91.793
lwrist 9.46112
lhand -34.7492 18.5197
lfingers 7.12502
lthumb -187.903 -491.648
rfemur 22.6741 -7.10411 25.4831
rtibia 3.45387
rfoot 38.2752 -21.2253
rtoes 14.7031
lfemur -25.1281 -21.0197 -11.5901
ltibia 29.6739
lfoot 27.5567 -45.6022
ltoes 52.8664
408
root -4.75208 17.9854 -2.27044 -168.385 -6.27019 -173.042
lowerback -11.5704 16.1782 14.1707
upperback -15.3795 17.8105 0.323841
thorax -6.56054 6.41685 -5.12255
lowerneck -7.47239 -22.6097 -4.41607
upperneck 8.19325 -31.8375 7.73016
head 5.54536 -15.54 0.286436
rclavicle 2.90226e-014 -1.19271e-014
rhumerus 110.051 26.1657 -50.3964
rradius 81.4165
rwrist 13.9238
rhand -44.7492 35.2639
rfingers 7.12502
rthumb -17.5423 6.03539
lclavicle 2.90226e-014 -1.19271e-014
lhumerus 71.4057 23.9129 64.68
lradius 91.7352
lwrist 8.97678
lhand -34.7251 18.4303
lfingers 7.12502
lthumb -187.879 -491.737
rfemur 23.0425 -7.25832 25.4147
rtibia 2.83002
rfoot 38.6099 -21.347
rtoes 14.9672
lfemur -25.1464 -21.051 -11.6647
ltibia 29.7859
lfoot 27.5066 -45.8442
ltoes 52.7709
409
root -4.75094 17.9807 -2.28249 -168.433 -6.41202 -173.035
lowerback -11.5615 16.2634 14.2112
upperback -15.4521 17.9293 0.160065
thorax -6.56515 6.46596 -5.29197
lowerneck -7.6027 -22.6245 -4.4439
upperneck 8.52014 -31.8696 7.59416
head 5.65256 -15.5486 0.212912
rclavicle -1.89442e-013 -1.58233e-013
rhumerus 109.663 26.0165 -50.728
rradius 81.6261
rwrist 13.6977
rhand -45.2239 35.5551
rfingers 7.12502
rthumb -17.9991 6.36797
lclavicle -1.89442e-013 -1.58233e-013
lhumerus 71.4243 23.9324 64.2768
lradius 91.5308
lwrist 8.43879
lhand -34.7363 18.5933
lfingers 7.12502
lthumb -187.89 -491.574
rfemur 23.3637 -7.3889 25.4205
rtibia 2.33068
rfoot 39.1321 -21.1207
rtoes 14.7053
lfemur -25.1323 -21.0232 -11.683
ltibia 29.8921
lfoot 27.6869 -45.98
ltoes 52.8995
410
root -4.74809 17.9767 -2.29289 -168.487 -6.57948 -172.933
lowerback -11.5191 16.3343 14.3239
upperback -15.5434 18.0244 0.0401921
thorax -6.60953 6.49003 -5.46278
lowerneck -7.5376 -22.582 -4.41564
upperneck 8.58157 -31.8188 7.56361
head 5.65063 -15.5281 0.213275
rclavicle 3.49861e-014 7.7526e-015
rhumerus 109.293 26.1031 -50.9756
rradius 81.7517
rwrist 13.5496
rhand -45.4837 35.9531
rfingers 7.12502
rthumb -18.2491 6.78911
lclavicle 3.49861e-014 7.7526e-015
lhumerus 71.3457 23.9576 63.9
lradius 91.2382
lwrist 7.9162
lhand -34.6746 18.203
lfingers 7.12502
lthumb -187.831 -491.962
rfemur 23.614 -7.53288 25.5438
rtibia 1.92151
rfoot 39.6252 -20.8348
rtoes 14.5229
lfemur -25.1457 -20.9765 -11.57
ltibia 29.9994
lfoot 28.2705 -45.8725
ltoes 53.3029
411
root -4.74621 17.9731 -2.30237 -168.519 -6.75975 -172.825
lowerback -11.5432 16.3781 14.4238
upperback -15.5973 18.068 -0.0279402
thorax -6.60494 6.49656 -5.56595
lowerneck -7.45042 -22.5302 -4.29386
upperneck 8.47495 -31.7145 7.45787
head 5.56233 -15.4887 0.213173
rclavicle -6.94752e-014 -7.07673e-014
rhumerus 109.302 27.3501 -50.9214
rradius 81.3822
rwrist 14.5661
rhand -45.9195 36.6065
rfingers 7.12502
rthumb -18.6682 7.48228
lclavicle -6.94752e-014 -7.07673e-014
lhumerus 71.1745 24.0299 63.4545
lradius 90.9936
lwrist 7.5434
lhand -34.6548 17.8543
lfingers 7.12502
lthumb -187.812 -492.31
rfemur 23.7027 -7.68764 25.6811
rtibia 1.77171
rfoot 39.8777 -20.6214
rtoes 14.3824
lfemur -25.1857 -20.9287 -11.4391
ltibia 30.0966
lfoot 28.7302 -45.8633
ltoes 53.503
412
root -4.74619 17.9681 -2.30922 -168.487 -6.93705 -172.796
lowerback -11.6188 16.4224 14.435
upperback -15.6988 18.0956 -0.0967642
thorax -6.65353 6.48992 -5.62757
lowerneck -7.15333 -22.5023 -4.36461
upperneck 8.35323 -31.658 7.45342
head 5.48482 -15.4794 0.268281
rclavicle 7.35503e-015 8.88567e-014
rhumerus 108.006 24.2414 -51.8557
rradius 82.5341
rwrist 11.0078
rhand -45.9773 36.8128
rfingers 7.12502
rthumb -18.7239 7.69397
lclavicle 7.35503e-015 8.88567e-014
lhumerus 70.8563 24.0898 62.9211
lradius 90.7133
lwrist 7.14846
lhand -34.5062 17.7525
lfingers 7.12502
lthumb -187.668 -492.407
rfemur 23.4498 -7.85194 25.7502
rtibia 2.19975
rfoot 39.7932 -20.3953
rtoes 14.3845
lfemur -25.268 -20.9175 -11.3736
ltibia 30.1517
lfoot 29.1111 -45.8605
ltoes 53.6275
413
root -4.74722 17.9655 -2.31289 -168.394 -7.05019 -172.838
lowerback -11.6875 16.4703 14.3703
upperback -15.7834 18.1384 -0.166599
thorax -6.70149 6.50045 -5.65419
lowerneck -6.95976 -22.4625 -4.51559
upperneck 8.31287 -31.6054 7.54101
head 5.47631 -15.4609 0.329655
rclavicle -1.92821e-014 -2.00773e-014
rhumerus 108.052 25.955 -51.6825
rradius 81.9043
rwrist 12.5098
rhand -46.387 37.9077
rfingers 7.12502
rthumb -19.1179 8.82732
lclavicle -1.92821e-014 -2.00773e-014
lhumerus 70.6491 24.1656 62.4758
lradius 90.2845
lwrist 6.765
lhand -34.2519 17.767
lfingers 7.12502
lthumb -187.423 -492.383
rfemur 23.0212 -7.96294 25.7463
rtibia 2.82966
rfoot 39.7385 -20.0919
rtoes 14.3965
lfemur -25.3892 -20.9256 -11.3713
ltibia 30.1607
lfoot 29.4582 -45.7505
ltoes 53.8214
